{
	"asset":{
		"generator":"Khronos glTF Blender I/O v4.0.44",
		"version":"2.0"
	},
	"extensionsUsed":[
		"KHR_lights_punctual"
	],
	"extensionsRequired":[
		"KHR_lights_punctual"
	],
	"extensions":{
		"KHR_lights_punctual":{
			"lights":[
				{
					"color":[
						1,
						1,
						1
					],
					"intensity":54351.41306588226,
					"type":"point",
					"name":"Light"
				}
			]
		}
	},
	"scene":0,
	"scenes":[
		{
			"name":"Scene",
			"nodes":[
				0,
				1,
				2
			]
		}
	],
	"nodes":[
		{
			"mesh":0,
			"name":"Cube"
		},
		{
			"extensions":{
				"KHR_lights_punctual":{
					"light":0
				}
			},
			"name":"Light",
			"rotation":[
				-0.28416627645492554,
				0.7269423007965088,
				0.34203392267227173,
				0.5232754945755005
			],
			"translation":[
				4.076245307922363,
				5.903861999511719,
				-1.0054539442062378
			]
		},
		{
			"camera":0,
			"name":"Camera",
			"rotation":[
				-0.20997299253940582,
				0.3857799470424652,
				0.09062844514846802,
				0.8937962055206299
			],
			"translation":[
				7.358891487121582,
				4.958309173583984,
				6.925790786743164
			]
		}
	],
	"cameras":[
		{
			"name":"Camera",
			"perspective":{
				"aspectRatio":1.7777777777777777,
				"yfov":0.39959652046304894,
				"zfar":100,
				"znear":0.10000000149011612
			},
			"type":"perspective"
		}
	],
	"materials":[
		{
			"doubleSided":true,
			"name":"Material",
			"pbrMetallicRoughness":{
				"baseColorFactor":[
					0.800000011920929,
					0.800000011920929,
					0.800000011920929,
					1
				],
				"metallicFactor":0,
				"roughnessFactor":0.5
			}
		}
	],
	"meshes":[
		{
			"name":"Cube",
			"primitives":[
				{
					"attributes":{
						"POSITION":0,
						"NORMAL":1,
						"TEXCOORD_0":2,
						"TANGENT":3
					},
					"indices":4,
					"material":0
				}
			]
		}
	],
	"accessors":[
		{
			"bufferView":0,
			"componentType":5126,
			"count":1617,
			"max":[
				2.103727340698242,
				1.2210054397583008,
				1.1141983270645142
			],
			"min":[
				-1.6519255638122559,
				-1,
				-1
			],
			"type":"VEC3"
		},
		{
			"bufferView":1,
			"componentType":5126,
			"count":1617,
			"type":"VEC3"
		},
		{
			"bufferView":2,
			"componentType":5126,
			"count":1617,
			"type":"VEC2"
		},
		{
			"bufferView":3,
			"componentType":5126,
			"count":1617,
			"type":"VEC4"
		},
		{
			"bufferView":4,
			"componentType":5123,
			"count":2820,
			"type":"SCALAR"
		}
	],
	"bufferViews":[
		{
			"buffer":0,
			"byteLength":19404,
			"byteOffset":0,
			"target":34962
		},
		{
			"buffer":0,
			"byteLength":19404,
			"byteOffset":19404,
			"target":34962
		},
		{
			"buffer":0,
			"byteLength":12936,
			"byteOffset":38808,
			"target":34962
		},
		{
			"buffer":0,
			"byteLength":25872,
			"byteOffset":51744,
			"target":34962
		},
		{
			"buffer":0,
			"byteLength":5640,
			"byteOffset":77616,
			"target":34963
		}
	],
	"buffers":[
		{
			"byteLength":83256,
			"uri":"Chaotic%20Cube-6809a23f430f5bc8fea358ecd82b1734.bin"
		}
	]
}
