{
	"asset":{
		"generator":"Khronos glTF Blender I/O v4.0.44",
		"version":"2.0"
	},
	"scene":0,
	"scenes":[
		{
			"name":"Scene",
			"nodes":[
				0
			]
		}
	],
	"nodes":[
		{
			"mesh":0,
			"name":"Cube"
		}
	],
	"materials":[
		{
			"doubleSided":true,
			"name":"Material",
			"pbrMetallicRoughness":{
				"baseColorFactor":[
					0.800000011920929,
					0.800000011920929,
					0.800000011920929,
					1
				],
				"metallicFactor":0,
				"roughnessFactor":0.5
			}
		}
	],
	"meshes":[
		{
			"name":"Cube",
			"primitives":[
				{
					"attributes":{
						"POSITION":0,
						"NORMAL":1,
						"TEXCOORD_0":2,
						"TANGENT":3
					},
					"indices":4,
					"material":0
				}
			]
		}
	],
	"accessors":[
		{
			"bufferView":0,
			"componentType":5126,
			"count":1617,
			"max":[
				2.103727340698242,
				1.2210054397583008,
				1.1141983270645142
			],
			"min":[
				-1.6519255638122559,
				-1,
				-1
			],
			"type":"VEC3"
		},
		{
			"bufferView":1,
			"componentType":5126,
			"count":1617,
			"type":"VEC3"
		},
		{
			"bufferView":2,
			"componentType":5126,
			"count":1617,
			"type":"VEC2"
		},
		{
			"bufferView":3,
			"componentType":5126,
			"count":1617,
			"type":"VEC4"
		},
		{
			"bufferView":4,
			"componentType":5123,
			"count":2820,
			"type":"SCALAR"
		}
	],
	"bufferViews":[
		{
			"buffer":0,
			"byteLength":19404,
			"byteOffset":0,
			"target":34962
		},
		{
			"buffer":0,
			"byteLength":19404,
			"byteOffset":19404,
			"target":34962
		},
		{
			"buffer":0,
			"byteLength":12936,
			"byteOffset":38808,
			"target":34962
		},
		{
			"buffer":0,
			"byteLength":25872,
			"byteOffset":51744,
			"target":34962
		},
		{
			"buffer":0,
			"byteLength":5640,
			"byteOffset":77616,
			"target":34963
		}
	],
	"buffers":[
		{
			"byteLength":83256,
			"uri":"Chaotic%20Cube-b994bad01ef4e59d6cce751ed93a853b.bin"
		}
	]
}
