{
	"asset":{
		"generator":"Khronos glTF Blender I/O v4.0.44",
		"version":"2.0"
	},
	"extensionsUsed":[
		"KHR_materials_emissive_strength",
		"KHR_lights_punctual",
		"KHR_materials_specular",
		"KHR_materials_ior"
	],
	"extensionsRequired":[
		"KHR_lights_punctual"
	],
	"extensions":{
		"KHR_lights_punctual":{
			"lights":[
				{
					"color":[
						1,
						1,
						1
					],
					"intensity":54351.41306588226,
					"type":"point",
					"name":"Light"
				}
			]
		}
	},
	"scene":0,
	"scenes":[
		{
			"name":"Scene",
			"nodes":[
				0,
				1,
				2,
				3,
				4,
				5,
				6,
				7,
				8,
				9,
				10,
				11
			]
		}
	],
	"nodes":[
		{
			"mesh":0,
			"name":"Cube"
		},
		{
			"extensions":{
				"KHR_lights_punctual":{
					"light":0
				}
			},
			"name":"Light",
			"rotation":[
				-0.28416627645492554,
				0.7269423007965088,
				0.34203392267227173,
				0.5232754945755005
			],
			"translation":[
				4.076245307922363,
				5.903861999511719,
				-1.0054539442062378
			]
		},
		{
			"camera":0,
			"name":"Camera",
			"rotation":[
				-0.20997299253940582,
				0.3857799470424652,
				0.09062844514846802,
				0.8937962055206299
			],
			"translation":[
				7.358891487121582,
				4.958309173583984,
				6.925790786743164
			]
		},
		{
			"mesh":1,
			"name":"Cylinder",
			"rotation":[
				0.7071068286895752,
				0,
				0,
				0.7071068286895752
			],
			"scale":[
				0.11999999731779099,
				0.6200000047683716,
				0.07999999821186066
			],
			"translation":[
				0,
				0,
				-6.539999961853027
			]
		},
		{
			"mesh":2,
			"name":"Cylinder.001",
			"scale":[
				0.14453336596488953,
				0.14453336596488953,
				0.17436978220939636
			],
			"translation":[
				0,
				0,
				-7.579999923706055
			]
		},
		{
			"mesh":3,
			"name":"Cylinder.002",
			"rotation":[
				0.7071068286895752,
				0,
				0,
				0.7071068286895752
			],
			"scale":[
				0.08240785449743271,
				0.13011766970157623,
				0.08240785449743271
			],
			"translation":[
				0,
				0,
				-7.289564609527588
			]
		},
		{
			"mesh":4,
			"name":"Cylinder.003",
			"rotation":[
				0.7071068286895752,
				0,
				0,
				0.7071068286895752
			],
			"scale":[
				0.2750000059604645,
				0.10000000149011612,
				0.12999999523162842
			],
			"translation":[
				0,
				0,
				-5.820000171661377
			]
		},
		{
			"mesh":5,
			"name":"Torus",
			"rotation":[
				0.7071068286895752,
				0,
				0,
				0.7071068286895752
			],
			"scale":[
				0.14034688472747803,
				0.08914408832788467,
				0.09441869705915451
			],
			"translation":[
				0.00041904591489583254,
				0,
				-5.922969818115234
			]
		},
		{
			"mesh":6,
			"name":"Torus.001",
			"rotation":[
				0.7071068286895752,
				0,
				0,
				0.7071068286895752
			],
			"scale":[
				0.11393365263938904,
				0.07236720621585846,
				0.07664912939071655
			],
			"translation":[
				0.00041904591489583254,
				0,
				-6.588693141937256
			]
		},
		{
			"mesh":7,
			"name":"Torus.002",
			"rotation":[
				0.7071068286895752,
				0,
				0,
				0.7071068286895752
			],
			"scale":[
				0.09821999073028564,
				0.07323121279478073,
				0.07756426185369492
			],
			"translation":[
				0.00041904591489583254,
				0,
				-7.15200662612915
			]
		},
		{
			"mesh":8,
			"name":"Torus.003",
			"rotation":[
				0.7071068286895752,
				0,
				0,
				0.7071068286895752
			],
			"scale":[
				0.09821999073028564,
				0.07323121279478073,
				0.07756426185369492
			],
			"translation":[
				0.00041904591489583254,
				0,
				-7.424447059631348
			]
		},
		{
			"name":"SwordReference",
			"scale":[
				1.7830384969711304,
				1.7830384969711304,
				1.7830384969711304
			],
			"translation":[
				0,
				-0.9709087610244751,
				-3.4149727821350098
			]
		}
	],
	"cameras":[
		{
			"name":"Camera",
			"perspective":{
				"aspectRatio":1.7777777777777777,
				"yfov":0.39959652046304894,
				"zfar":100,
				"znear":0.10000000149011612
			},
			"type":"perspective"
		}
	],
	"materials":[
		{
			"doubleSided":true,
			"emissiveFactor":[
				1,
				1,
				1
			],
			"extensions":{
				"KHR_materials_emissive_strength":{
					"emissiveStrength":100
				}
			},
			"name":"Material",
			"pbrMetallicRoughness":{
				"baseColorFactor":[
					0.800000011920929,
					0.800000011920929,
					0.800000011920929,
					1
				]
			}
		},
		{
			"doubleSided":true,
			"extensions":{
				"KHR_materials_specular":{
					"specularFactor":0
				},
				"KHR_materials_ior":{
					"ior":1.4500000476837158
				}
			},
			"name":"Material.003",
			"pbrMetallicRoughness":{
				"metallicFactor":0,
				"roughnessFactor":0.5
			}
		},
		{
			"doubleSided":true,
			"emissiveFactor":[
				1,
				1,
				1
			],
			"extensions":{
				"KHR_materials_emissive_strength":{
					"emissiveStrength":100
				}
			},
			"name":"Material.006",
			"pbrMetallicRoughness":{
				"baseColorFactor":[
					0.6424647569656372,
					0.8007893562316895,
					0.5400459170341492,
					1
				]
			}
		},
		{
			"doubleSided":true,
			"emissiveFactor":[
				1,
				1,
				1
			],
			"extensions":{
				"KHR_materials_emissive_strength":{
					"emissiveStrength":100
				},
				"KHR_materials_specular":{
					"specularColorFactor":[
						1.225454568862915,
						1.225454568862915,
						1.225454568862915
					]
				},
				"KHR_materials_ior":{
					"ior":1.4500000476837158
				}
			},
			"name":"Material.002",
			"pbrMetallicRoughness":{
				"baseColorFactor":[
					0.0877087339758873,
					0.09934808313846588,
					0.07445526868104935,
					1
				]
			}
		}
	],
	"meshes":[
		{
			"name":"Cube",
			"primitives":[
				{
					"attributes":{
						"POSITION":0,
						"NORMAL":1,
						"TEXCOORD_0":2,
						"TANGENT":3
					},
					"indices":4,
					"material":0
				}
			]
		},
		{
			"name":"Cylinder",
			"primitives":[
				{
					"attributes":{
						"POSITION":5,
						"NORMAL":6,
						"TEXCOORD_0":7,
						"TANGENT":8
					},
					"indices":9,
					"material":1
				}
			]
		},
		{
			"name":"Cylinder.001",
			"primitives":[
				{
					"attributes":{
						"POSITION":10,
						"NORMAL":11,
						"TEXCOORD_0":12,
						"TANGENT":13
					},
					"indices":14,
					"material":2
				}
			]
		},
		{
			"name":"Cylinder.002",
			"primitives":[
				{
					"attributes":{
						"POSITION":15,
						"NORMAL":16,
						"TEXCOORD_0":17,
						"TANGENT":18
					},
					"indices":19,
					"material":2
				}
			]
		},
		{
			"name":"Cylinder.003",
			"primitives":[
				{
					"attributes":{
						"POSITION":20,
						"NORMAL":21,
						"TEXCOORD_0":22,
						"TANGENT":23
					},
					"indices":24,
					"material":3
				}
			]
		},
		{
			"name":"Torus",
			"primitives":[
				{
					"attributes":{
						"POSITION":25,
						"NORMAL":26,
						"TEXCOORD_0":27,
						"TANGENT":28
					},
					"indices":29,
					"material":2
				}
			]
		},
		{
			"name":"Torus.001",
			"primitives":[
				{
					"attributes":{
						"POSITION":30,
						"NORMAL":31,
						"TEXCOORD_0":32,
						"TANGENT":33
					},
					"indices":29,
					"material":2
				}
			]
		},
		{
			"name":"Torus.002",
			"primitives":[
				{
					"attributes":{
						"POSITION":34,
						"NORMAL":35,
						"TEXCOORD_0":36,
						"TANGENT":37
					},
					"indices":29,
					"material":2
				}
			]
		},
		{
			"name":"Torus.003",
			"primitives":[
				{
					"attributes":{
						"POSITION":38,
						"NORMAL":39,
						"TEXCOORD_0":40,
						"TANGENT":41
					},
					"indices":29,
					"material":2
				}
			]
		}
	],
	"accessors":[
		{
			"bufferView":0,
			"componentType":5126,
			"count":8028,
			"max":[
				0.22759979963302612,
				0.051775094121694565,
				0.9294121861457825
			],
			"min":[
				-0.22759979963302612,
				-0.051775094121694565,
				-5.800001621246338
			],
			"type":"VEC3"
		},
		{
			"bufferView":1,
			"componentType":5126,
			"count":8028,
			"type":"VEC3"
		},
		{
			"bufferView":2,
			"componentType":5126,
			"count":8028,
			"type":"VEC2"
		},
		{
			"bufferView":3,
			"componentType":5126,
			"count":8028,
			"type":"VEC4"
		},
		{
			"bufferView":4,
			"componentType":5123,
			"count":33792,
			"type":"SCALAR"
		},
		{
			"bufferView":5,
			"componentType":5126,
			"count":55,
			"max":[
				0.9510565400123596,
				1,
				1
			],
			"min":[
				-0.9510565400123596,
				-1.0000004768371582,
				-1
			],
			"type":"VEC3"
		},
		{
			"bufferView":6,
			"componentType":5126,
			"count":55,
			"type":"VEC3"
		},
		{
			"bufferView":7,
			"componentType":5126,
			"count":55,
			"type":"VEC2"
		},
		{
			"bufferView":8,
			"componentType":5126,
			"count":55,
			"type":"VEC4"
		},
		{
			"bufferView":9,
			"componentType":5123,
			"count":240,
			"type":"SCALAR"
		},
		{
			"bufferView":10,
			"componentType":5126,
			"count":3820,
			"max":[
				0.9359204173088074,
				0.841027557849884,
				0.9363391399383545
			],
			"min":[
				-0.9359204173088074,
				-0.8410276770591736,
				-1.5148011445999146
			],
			"type":"VEC3"
		},
		{
			"bufferView":11,
			"componentType":5126,
			"count":3820,
			"type":"VEC3"
		},
		{
			"bufferView":12,
			"componentType":5126,
			"count":3820,
			"type":"VEC2"
		},
		{
			"bufferView":13,
			"componentType":5126,
			"count":3820,
			"type":"VEC4"
		},
		{
			"bufferView":14,
			"componentType":5123,
			"count":19488,
			"type":"SCALAR"
		},
		{
			"bufferView":15,
			"componentType":5126,
			"count":369,
			"max":[
				1.0604815483093262,
				1.0000001192092896,
				1.1150562763214111
			],
			"min":[
				-1.0604814291000366,
				-1.0000001192092896,
				-0.9363390803337097
			],
			"type":"VEC3"
		},
		{
			"bufferView":16,
			"componentType":5126,
			"count":369,
			"type":"VEC3"
		},
		{
			"bufferView":17,
			"componentType":5126,
			"count":369,
			"type":"VEC2"
		},
		{
			"bufferView":18,
			"componentType":5126,
			"count":369,
			"type":"VEC4"
		},
		{
			"bufferView":19,
			"componentType":5123,
			"count":1920,
			"type":"SCALAR"
		},
		{
			"bufferView":20,
			"componentType":5126,
			"count":21865,
			"max":[
				3.227051019668579,
				4.333545684814453,
				0.9249863028526306
			],
			"min":[
				-3.227051019668579,
				-1.000000238418579,
				-0.9249863028526306
			],
			"type":"VEC3"
		},
		{
			"bufferView":21,
			"componentType":5126,
			"count":21865,
			"type":"VEC3"
		},
		{
			"bufferView":22,
			"componentType":5126,
			"count":21865,
			"type":"VEC2"
		},
		{
			"bufferView":23,
			"componentType":5126,
			"count":21865,
			"type":"VEC4"
		},
		{
			"bufferView":24,
			"componentType":5123,
			"count":86016,
			"type":"SCALAR"
		},
		{
			"bufferView":25,
			"componentType":5126,
			"count":718,
			"max":[
				1.1946091651916504,
				0.20748528838157654,
				1.1946091651916504
			],
			"min":[
				-1.1946090459823608,
				-0.20748528838157654,
				-1.1946091651916504
			],
			"type":"VEC3"
		},
		{
			"bufferView":26,
			"componentType":5126,
			"count":718,
			"type":"VEC3"
		},
		{
			"bufferView":27,
			"componentType":5126,
			"count":718,
			"type":"VEC2"
		},
		{
			"bufferView":28,
			"componentType":5126,
			"count":718,
			"type":"VEC4"
		},
		{
			"bufferView":29,
			"componentType":5123,
			"count":3456,
			"type":"SCALAR"
		},
		{
			"bufferView":30,
			"componentType":5126,
			"count":718,
			"max":[
				1.1946091651916504,
				0.20748528838157654,
				1.1946091651916504
			],
			"min":[
				-1.1946090459823608,
				-0.20748528838157654,
				-1.1946091651916504
			],
			"type":"VEC3"
		},
		{
			"bufferView":31,
			"componentType":5126,
			"count":718,
			"type":"VEC3"
		},
		{
			"bufferView":32,
			"componentType":5126,
			"count":718,
			"type":"VEC2"
		},
		{
			"bufferView":33,
			"componentType":5126,
			"count":718,
			"type":"VEC4"
		},
		{
			"bufferView":34,
			"componentType":5126,
			"count":718,
			"max":[
				1.1946091651916504,
				0.20748528838157654,
				1.1946091651916504
			],
			"min":[
				-1.1946090459823608,
				-0.20748528838157654,
				-1.1946091651916504
			],
			"type":"VEC3"
		},
		{
			"bufferView":35,
			"componentType":5126,
			"count":718,
			"type":"VEC3"
		},
		{
			"bufferView":36,
			"componentType":5126,
			"count":718,
			"type":"VEC2"
		},
		{
			"bufferView":37,
			"componentType":5126,
			"count":718,
			"type":"VEC4"
		},
		{
			"bufferView":38,
			"componentType":5126,
			"count":718,
			"max":[
				1.1946091651916504,
				0.20748528838157654,
				1.1946091651916504
			],
			"min":[
				-1.1946090459823608,
				-0.20748528838157654,
				-1.1946091651916504
			],
			"type":"VEC3"
		},
		{
			"bufferView":39,
			"componentType":5126,
			"count":718,
			"type":"VEC3"
		},
		{
			"bufferView":40,
			"componentType":5126,
			"count":718,
			"type":"VEC2"
		},
		{
			"bufferView":41,
			"componentType":5126,
			"count":718,
			"type":"VEC4"
		}
	],
	"bufferViews":[
		{
			"buffer":0,
			"byteLength":96336,
			"byteOffset":0,
			"target":34962
		},
		{
			"buffer":0,
			"byteLength":96336,
			"byteOffset":96336,
			"target":34962
		},
		{
			"buffer":0,
			"byteLength":64224,
			"byteOffset":192672,
			"target":34962
		},
		{
			"buffer":0,
			"byteLength":128448,
			"byteOffset":256896,
			"target":34962
		},
		{
			"buffer":0,
			"byteLength":67584,
			"byteOffset":385344,
			"target":34963
		},
		{
			"buffer":0,
			"byteLength":660,
			"byteOffset":452928,
			"target":34962
		},
		{
			"buffer":0,
			"byteLength":660,
			"byteOffset":453588,
			"target":34962
		},
		{
			"buffer":0,
			"byteLength":440,
			"byteOffset":454248,
			"target":34962
		},
		{
			"buffer":0,
			"byteLength":880,
			"byteOffset":454688,
			"target":34962
		},
		{
			"buffer":0,
			"byteLength":480,
			"byteOffset":455568,
			"target":34963
		},
		{
			"buffer":0,
			"byteLength":45840,
			"byteOffset":456048,
			"target":34962
		},
		{
			"buffer":0,
			"byteLength":45840,
			"byteOffset":501888,
			"target":34962
		},
		{
			"buffer":0,
			"byteLength":30560,
			"byteOffset":547728,
			"target":34962
		},
		{
			"buffer":0,
			"byteLength":61120,
			"byteOffset":578288,
			"target":34962
		},
		{
			"buffer":0,
			"byteLength":38976,
			"byteOffset":639408,
			"target":34963
		},
		{
			"buffer":0,
			"byteLength":4428,
			"byteOffset":678384,
			"target":34962
		},
		{
			"buffer":0,
			"byteLength":4428,
			"byteOffset":682812,
			"target":34962
		},
		{
			"buffer":0,
			"byteLength":2952,
			"byteOffset":687240,
			"target":34962
		},
		{
			"buffer":0,
			"byteLength":5904,
			"byteOffset":690192,
			"target":34962
		},
		{
			"buffer":0,
			"byteLength":3840,
			"byteOffset":696096,
			"target":34963
		},
		{
			"buffer":0,
			"byteLength":262380,
			"byteOffset":699936,
			"target":34962
		},
		{
			"buffer":0,
			"byteLength":262380,
			"byteOffset":962316,
			"target":34962
		},
		{
			"buffer":0,
			"byteLength":174920,
			"byteOffset":1224696,
			"target":34962
		},
		{
			"buffer":0,
			"byteLength":349840,
			"byteOffset":1399616,
			"target":34962
		},
		{
			"buffer":0,
			"byteLength":172032,
			"byteOffset":1749456,
			"target":34963
		},
		{
			"buffer":0,
			"byteLength":8616,
			"byteOffset":1921488,
			"target":34962
		},
		{
			"buffer":0,
			"byteLength":8616,
			"byteOffset":1930104,
			"target":34962
		},
		{
			"buffer":0,
			"byteLength":5744,
			"byteOffset":1938720,
			"target":34962
		},
		{
			"buffer":0,
			"byteLength":11488,
			"byteOffset":1944464,
			"target":34962
		},
		{
			"buffer":0,
			"byteLength":6912,
			"byteOffset":1955952,
			"target":34963
		},
		{
			"buffer":0,
			"byteLength":8616,
			"byteOffset":1962864,
			"target":34962
		},
		{
			"buffer":0,
			"byteLength":8616,
			"byteOffset":1971480,
			"target":34962
		},
		{
			"buffer":0,
			"byteLength":5744,
			"byteOffset":1980096,
			"target":34962
		},
		{
			"buffer":0,
			"byteLength":11488,
			"byteOffset":1985840,
			"target":34962
		},
		{
			"buffer":0,
			"byteLength":8616,
			"byteOffset":1997328,
			"target":34962
		},
		{
			"buffer":0,
			"byteLength":8616,
			"byteOffset":2005944,
			"target":34962
		},
		{
			"buffer":0,
			"byteLength":5744,
			"byteOffset":2014560,
			"target":34962
		},
		{
			"buffer":0,
			"byteLength":11488,
			"byteOffset":2020304,
			"target":34962
		},
		{
			"buffer":0,
			"byteLength":8616,
			"byteOffset":2031792,
			"target":34962
		},
		{
			"buffer":0,
			"byteLength":8616,
			"byteOffset":2040408,
			"target":34962
		},
		{
			"buffer":0,
			"byteLength":5744,
			"byteOffset":2049024,
			"target":34962
		},
		{
			"buffer":0,
			"byteLength":11488,
			"byteOffset":2054768,
			"target":34962
		}
	],
	"buffers":[
		{
			"byteLength":2066256,
			"uri":"teste1-cff3b697d092b6d728a1ad48f1a09f89.bin"
		}
	]
}
