{
	"asset":{
		"generator":"Khronos glTF Blender I/O v4.0.44",
		"version":"2.0"
	},
	"extensionsUsed":[
		"KHR_lights_punctual"
	],
	"extensionsRequired":[
		"KHR_lights_punctual"
	],
	"extensions":{
		"KHR_lights_punctual":{
			"lights":[
				{
					"color":[
						1,
						1,
						1
					],
					"intensity":54351.41306588226,
					"type":"point",
					"name":"Light"
				}
			]
		}
	},
	"scene":0,
	"scenes":[
		{
			"name":"Scene",
			"nodes":[
				0,
				1,
				2
			]
		}
	],
	"nodes":[
		{
			"extensions":{
				"KHR_lights_punctual":{
					"light":0
				}
			},
			"name":"Light",
			"rotation":[
				-0.28416627645492554,
				0.7269423007965088,
				0.34203392267227173,
				0.5232754945755005
			],
			"translation":[
				4.076245307922363,
				5.903861999511719,
				-1.0054539442062378
			]
		},
		{
			"camera":0,
			"name":"Camera",
			"rotation":[
				-0.20997299253940582,
				0.3857799470424652,
				0.09062844514846802,
				0.8937962055206299
			],
			"translation":[
				7.358891487121582,
				4.958309173583984,
				6.925790786743164
			]
		},
		{
			"mesh":0,
			"name":"Cube"
		}
	],
	"cameras":[
		{
			"name":"Camera",
			"perspective":{
				"aspectRatio":1.7777777777777777,
				"yfov":0.39959652046304894,
				"zfar":100,
				"znear":0.10000000149011612
			},
			"type":"perspective"
		}
	],
	"meshes":[
		{
			"name":"Cube.003",
			"primitives":[
				{
					"attributes":{
						"POSITION":0,
						"NORMAL":1,
						"TEXCOORD_0":2,
						"TANGENT":3
					},
					"indices":4
				}
			]
		}
	],
	"accessors":[
		{
			"bufferView":0,
			"componentType":5126,
			"count":1572863,
			"max":[
				0.8839784264564514,
				0.8566833138465881,
				0.9046931266784668
			],
			"min":[
				-0.9056128859519958,
				-0.8778768181800842,
				-1.0108606815338135
			],
			"type":"VEC3"
		},
		{
			"bufferView":1,
			"componentType":5126,
			"count":1572863,
			"type":"VEC3"
		},
		{
			"bufferView":2,
			"componentType":5126,
			"count":1572863,
			"type":"VEC2"
		},
		{
			"bufferView":3,
			"componentType":5126,
			"count":1572863,
			"type":"VEC4"
		},
		{
			"bufferView":4,
			"componentType":5125,
			"count":2359296,
			"type":"SCALAR"
		}
	],
	"bufferViews":[
		{
			"buffer":0,
			"byteLength":18874356,
			"byteOffset":0,
			"target":34962
		},
		{
			"buffer":0,
			"byteLength":18874356,
			"byteOffset":18874356,
			"target":34962
		},
		{
			"buffer":0,
			"byteLength":12582904,
			"byteOffset":37748712,
			"target":34962
		},
		{
			"buffer":0,
			"byteLength":25165808,
			"byteOffset":50331616,
			"target":34962
		},
		{
			"buffer":0,
			"byteLength":9437184,
			"byteOffset":75497424,
			"target":34963
		}
	],
	"buffers":[
		{
			"byteLength":84934608,
			"uri":"teste%20massa-dc50cd8e12c94b987eaec0aa1f1d9ea9.bin"
		}
	]
}
