<svg version="1.1" id="Layer_1" xmlns="http://www.w3.org/2000/svg" xmlns:xlink="http://www.w3.org/1999/xlink" x="0px" y="0px"
	 width="100%" viewBox="0 0 500 500" enable-background="new 0 0 500 500" xml:space="preserve">
<path fill="#000000" opacity="1.000000" stroke="none" 
	d="
M269.000000,501.000000 
	C179.333359,501.000000 90.166710,501.000000 1.000048,501.000000 
	C1.000032,334.333405 1.000032,167.666794 1.000016,1.000137 
	C167.666565,1.000092 334.333130,1.000092 500.999756,1.000046 
	C500.999847,167.666519 500.999847,334.333038 500.999939,500.999786 
	C423.833344,501.000000 346.666656,501.000000 269.000000,501.000000 
M222.691101,40.783421 
	C222.691101,40.783421 222.834824,40.465099 223.441406,40.496639 
	C223.345596,39.215588 223.249771,37.934532 222.797913,36.081764 
	C221.548981,35.974079 220.300049,35.866394 218.466858,35.597897 
	C217.750412,35.944279 217.033951,36.290661 215.888199,36.454769 
	C215.438950,36.534008 214.989685,36.613247 214.105591,36.341141 
	C211.947708,37.639233 209.789810,38.937325 207.168701,40.824589 
	C205.343521,48.440266 203.518341,56.055943 201.200836,64.010918 
	C201.013702,64.752838 200.826569,65.494751 200.242615,66.577003 
	C200.174561,66.737419 200.106506,66.897835 199.397568,67.170837 
	C198.448715,68.855530 197.499878,70.540222 196.080353,72.692581 
	C195.408356,73.828178 194.736374,74.963776 193.424088,76.234436 
	C190.930283,82.504593 186.764221,86.783600 179.851471,88.060577 
	C178.545166,88.301880 177.398590,89.407745 175.526093,90.269371 
	C173.906723,92.400764 172.287354,94.532166 169.907516,96.934410 
	C164.922729,100.051788 154.999222,96.529037 152.432648,90.238617 
	C151.347458,87.578865 150.100189,87.566414 147.197937,87.876953 
	C145.798584,87.918358 144.399231,87.959763 142.546097,87.687119 
	C138.841751,90.849434 135.137405,94.011742 131.082382,97.467194 
	C131.082382,97.467194 130.926422,97.896828 130.326797,98.063782 
	C129.903320,99.706116 129.479843,101.348442 128.832367,103.733322 
	C128.840271,104.763588 128.848190,105.793854 128.395981,106.939034 
	C128.326935,107.616272 128.257889,108.293518 127.828484,109.568726 
	C127.533958,110.687431 127.239441,111.806137 126.375694,113.275131 
	C124.942642,118.257141 123.509583,123.239151 121.682434,128.847794 
	C121.496445,129.303207 121.310448,129.758606 120.525085,130.409454 
	C120.035263,132.015656 119.545441,133.621872 118.665215,135.842346 
	C118.478348,136.289001 118.291473,136.735641 117.514107,137.316376 
	C117.022003,138.287521 116.529900,139.258652 115.651512,140.831802 
	C115.461891,141.268677 115.272270,141.705536 114.478905,142.237579 
	C114.020691,142.842621 113.562477,143.447647 112.667244,144.311737 
	C112.464050,144.579056 112.260849,144.846375 111.556320,145.053101 
	C111.389114,145.699188 111.221909,146.345276 110.794159,147.852417 
	C110.888863,150.238586 110.983559,152.624771 110.726234,155.331070 
	C111.070869,155.985260 111.415497,156.639435 111.913292,157.975571 
	C113.493744,160.585297 115.074196,163.195038 116.692497,166.628906 
	C115.257683,168.249069 113.822876,169.869232 112.168480,171.737350 
	C115.019203,174.342407 117.664062,176.759323 120.595390,180.176041 
	C120.662506,180.516159 120.729622,180.856277 120.226082,181.592041 
	C120.426674,183.471039 120.627266,185.350037 121.181969,187.799973 
	C125.793320,190.864014 130.404678,193.928070 135.295486,197.776810 
	C135.036469,201.891174 134.777435,206.005524 133.916962,210.471298 
	C132.306717,211.767548 130.696472,213.063812 128.491562,214.448685 
	C127.658920,215.298050 126.826279,216.147415 125.334274,217.220123 
	C118.923737,221.557938 112.513199,225.895767 105.628723,230.660278 
	C104.803322,231.775101 103.977913,232.889923 102.987190,234.228027 
	C104.705368,235.496506 106.118652,236.539886 107.531929,237.583252 
	C107.633621,237.056351 107.735313,236.529465 108.302452,235.525635 
	C108.263817,235.089066 108.225189,234.652512 108.388840,233.577896 
	C109.544350,232.355316 110.699852,231.132736 111.933792,229.899429 
	C111.933792,229.899429 111.908829,229.824310 112.672874,229.428940 
	C116.920807,228.739761 121.168732,228.050583 126.044525,227.102798 
	C129.351913,225.050430 132.659302,222.998062 136.655167,220.759201 
	C137.268051,217.775497 137.880936,214.791809 139.033264,211.409912 
	C140.353394,209.936676 141.673508,208.463440 143.610031,206.759567 
	C145.486725,202.769806 147.363403,198.780029 149.481766,194.276474 
	C148.041519,193.362717 146.451843,192.354156 144.320236,190.942459 
	C142.900772,190.280930 141.481293,189.619400 139.830505,188.344513 
	C138.167923,187.375320 136.505325,186.406128 134.374207,185.112106 
	C134.013931,184.996613 133.653641,184.881119 132.977432,184.130936 
	C129.416931,182.046188 127.775032,179.102768 128.515625,175.048477 
	C131.170410,175.048477 133.478943,175.048477 135.787476,175.048477 
	C136.383606,174.268738 136.979736,173.489014 137.575882,172.709274 
	C136.090286,172.083572 134.604706,171.457855 132.950546,170.426895 
	C132.950546,170.426895 132.611160,170.148590 132.615189,169.521103 
	C131.765656,168.648544 130.916122,167.775970 129.903091,166.474335 
	C129.903091,166.474335 129.570618,166.157623 129.583725,165.440628 
	C128.265335,160.939056 126.978081,156.428009 125.609451,151.941757 
	C125.202621,150.608215 124.920677,148.657578 123.973915,148.170349 
	C120.330818,146.295502 119.941315,143.248764 120.517960,139.141449 
	C121.021133,137.761856 121.524307,136.382263 122.384232,134.452942 
	C124.244301,132.613571 126.104378,130.774185 128.595566,128.720963 
	C129.854263,124.744072 131.112961,120.767181 132.860596,116.346069 
	C133.524109,115.768143 134.187622,115.190216 135.510925,114.581551 
	C135.855499,113.302567 136.395493,112.038666 136.495682,110.740814 
	C136.623901,109.080223 136.397690,107.392265 136.607162,105.635971 
	C136.607162,105.635971 136.784576,105.401413 137.374512,105.454979 
	C138.069565,105.130363 138.764603,104.805748 140.007599,104.431427 
	C140.338730,104.282249 140.669876,104.133072 141.446854,104.226189 
	C142.037582,102.874008 142.628296,101.521820 143.979202,100.052673 
	C144.996933,99.945587 146.014648,99.838501 147.614059,100.164268 
	C155.643433,100.839668 163.668808,101.568642 171.703735,102.169868 
	C176.331467,102.516144 179.906403,101.025864 182.627747,96.815681 
	C184.260117,94.290253 187.046844,92.348213 189.642456,90.642708 
	C194.717407,87.308090 200.022003,84.322968 205.790726,81.062515 
	C206.437119,80.387001 207.083496,79.711487 208.380325,79.032249 
	C208.899246,77.688660 209.418167,76.345070 210.157990,74.452965 
	C210.187073,74.061798 210.216141,73.670624 210.812271,72.965675 
	C211.187424,70.980370 211.562576,68.995064 212.115829,66.180771 
	C212.158264,64.212944 212.200699,62.245121 212.828598,59.944401 
	C214.600693,55.203228 216.372787,50.462051 218.585831,45.309208 
	C218.789307,44.966118 218.992783,44.623028 219.814972,44.261955 
	C220.204071,43.797779 220.593185,43.333603 221.488708,42.702969 
	C221.774048,42.078068 222.059387,41.453167 222.691101,40.783421 
M215.228760,461.463806 
	C215.868713,461.899536 216.508667,462.335266 217.361725,463.132385 
	C217.534256,463.381317 217.771835,463.511780 218.605408,464.078186 
	C223.442062,465.441895 227.566727,463.672852 231.013336,460.613983 
	C237.578873,454.787018 244.041763,448.823059 250.240814,442.610229 
	C257.118805,435.716919 263.734436,428.554108 270.252380,421.317780 
	C271.225952,420.236847 271.476013,418.064972 271.303040,416.480499 
	C270.923737,413.005585 272.425690,411.322815 275.653412,411.297607 
	C279.795135,411.265198 283.939606,411.582886 288.605530,412.307465 
	C290.245453,416.477814 291.684235,420.742096 293.576996,424.794373 
	C295.872131,429.708038 298.610840,434.389465 304.501495,436.559418 
	C302.453766,429.230499 300.181854,422.002350 296.899231,415.266754 
	C293.699188,408.700562 289.465332,402.638336 281.997772,399.216644 
	C280.695618,399.491058 279.389160,399.746857 278.092651,400.045776 
	C277.049774,400.286194 275.795074,401.097778 275.019379,400.763245 
	C270.337708,398.744232 269.784149,401.911102 269.012970,405.036621 
	C269.012970,405.036621 269.156097,405.159576 268.374695,405.156677 
	C266.974487,405.816803 265.574280,406.476898 263.840088,407.722015 
	C263.882507,408.143951 263.924927,408.565918 263.691833,409.557617 
	C263.628326,410.184082 263.564819,410.810577 263.089996,411.859375 
	C263.037842,412.624817 262.985687,413.390228 262.541382,414.725311 
	C262.358215,415.145325 262.175079,415.565338 261.423767,416.161835 
	C261.013977,416.795471 260.604218,417.429138 259.805450,418.375610 
	C259.623962,418.664795 259.382324,418.889191 258.349121,419.094299 
	C257.700867,420.228241 257.052612,421.362183 256.293884,422.812653 
	C256.293884,422.812653 256.023590,423.010986 255.319824,423.051483 
	C250.598816,426.587128 245.888733,430.137512 241.150528,433.649963 
	C239.609207,434.792542 236.874695,435.607117 236.597626,436.962494 
	C234.979355,444.879272 228.212311,448.972595 223.343384,454.884033 
	C222.215927,454.277496 221.088470,453.670959 219.842072,452.408234 
	C217.431091,449.863281 216.606491,451.633698 215.353394,454.025604 
	C214.954102,454.124969 214.554794,454.224335 213.268295,453.931427 
	C205.913818,453.807556 198.559357,453.683685 191.007141,453.089325 
	C190.337982,453.062653 189.668823,453.035980 188.395523,452.890778 
	C188.005035,452.765015 187.614563,452.639252 187.035187,452.048981 
	C186.361069,451.970703 185.686935,451.892426 184.223785,451.674927 
	C182.102463,451.539551 179.981155,451.404175 177.253540,451.108185 
	C176.842239,451.032928 176.430939,450.957703 175.954819,450.167725 
	C174.635803,449.788239 173.316788,449.408752 171.542038,448.550873 
	C168.271454,449.125214 165.000870,449.699554 161.340393,449.701813 
	C160.342361,447.457825 159.344315,445.213806 158.339188,442.165131 
	C158.185760,441.109924 158.032318,440.054749 157.955566,438.111115 
	C157.597168,434.819061 157.623764,431.426422 156.795944,428.256958 
	C155.314514,422.584930 156.060760,416.043457 150.694168,411.759796 
	C147.650574,409.330414 144.736664,406.738556 141.772766,403.533783 
	C140.921280,402.307648 140.069794,401.081482 138.866516,399.435120 
	C138.494354,399.033691 138.122192,398.632263 137.727585,397.430328 
	C134.522202,388.919586 133.486557,380.611328 140.544678,372.620850 
	C141.766891,371.086761 142.989105,369.552673 144.701355,368.235657 
	C144.872055,368.182892 145.042740,368.130096 145.936783,367.823639 
	C146.281143,366.799408 146.913666,365.778015 146.923660,364.750519 
	C146.994507,357.449066 146.938034,350.146332 146.953415,342.236084 
	C146.973114,341.832428 146.992813,341.428802 147.515182,340.813141 
	C146.122040,338.996765 145.078094,336.216949 143.264816,335.559692 
	C139.183105,334.080261 137.496460,331.026489 135.614685,327.640594 
	C133.794128,324.364838 131.253906,321.497711 129.255905,318.309418 
	C127.353973,315.274384 125.518776,312.156158 124.071251,308.889709 
	C122.701683,305.799133 122.079857,302.381683 120.765381,299.261261 
	C117.951912,292.582397 112.367836,286.836456 114.084587,278.665771 
	C114.200317,278.114960 113.819901,277.335358 113.446869,276.825684 
	C109.823753,271.875092 110.950783,266.487030 111.780716,261.059174 
	C112.001266,259.616730 111.479729,258.060852 111.128151,256.187805 
	C111.128151,256.187805 110.735512,256.081360 110.320999,255.327713 
	C109.565865,251.623077 108.810730,247.918427 108.055595,244.213791 
	C109.536003,248.523239 110.653458,252.797073 106.289009,256.381287 
	C104.070229,258.203400 100.999420,260.990601 101.084442,263.236664 
	C101.330727,269.743042 100.562767,276.860504 106.180695,282.352448 
	C105.380966,283.875458 104.173576,285.400574 103.829247,287.100555 
	C103.596596,288.249146 104.579781,289.644012 105.450165,291.456909 
	C114.695541,295.560822 118.289703,304.141846 118.953224,312.818909 
	C119.469315,319.568085 122.931725,322.988678 126.663605,327.308441 
	C131.087891,332.429626 134.831131,338.139130 138.607178,344.237640 
	C138.964737,345.220184 139.322281,346.202728 139.911713,347.793488 
	C140.374649,348.772614 140.837585,349.751740 141.231308,351.636658 
	C141.100769,354.007263 140.970230,356.377869 140.244736,359.126434 
	C137.232971,361.173004 132.907654,362.567841 131.497833,365.409241 
	C128.985245,370.473328 127.598709,376.336700 126.929192,382.006104 
	C126.276855,387.530060 127.832542,393.331909 127.054108,398.818115 
	C126.485832,402.823120 127.345757,405.233398 130.406372,407.174622 
	C132.763046,408.669342 135.285919,409.902039 138.072449,411.873993 
	C139.561737,414.757782 141.075180,417.629425 142.530807,420.530121 
	C143.336090,422.134857 143.667755,424.162659 144.857208,425.359375 
	C153.113022,433.665497 156.524307,444.661407 160.133118,455.117096 
	C162.691437,462.529144 169.362961,464.491821 177.983582,463.161041 
	C178.911316,462.564789 179.839050,461.968536 181.352417,461.449036 
	C181.970734,461.030975 182.589050,460.612915 183.919266,460.013702 
	C185.649918,459.097961 187.380569,458.182190 189.760147,457.411346 
	C196.875839,457.544708 203.991531,457.678101 211.091797,457.880402 
	C211.091797,457.880402 211.161377,457.892670 211.325455,458.512665 
	C212.609665,459.249512 213.893875,459.986328 215.177475,460.828979 
	C215.177475,460.828979 215.282959,460.820526 215.228760,461.463806 
z"/>
<path fill="#EEEEEE" opacity="1.000000" stroke="none" 
	d="
M108.186554,234.215942 
	C108.225189,234.652512 108.263817,235.089066 107.754837,235.658356 
	C103.520653,234.598099 106.345512,232.110992 106.102661,230.233582 
	C112.513199,225.895767 118.923737,221.557938 125.988983,217.123688 
	C127.457870,216.138184 128.272049,215.249115 129.086243,214.360046 
	C130.696472,213.063812 132.306717,211.767548 134.563766,210.247391 
	C139.307602,205.190338 139.232132,200.134933 135.016022,196.992126 
	C130.404678,193.928070 125.793320,190.864014 121.096619,187.132217 
	C120.939758,184.708435 120.868248,182.952423 120.796738,181.196396 
	C120.729622,180.856277 120.662506,180.516159 120.471031,179.347321 
	C118.621582,175.991760 116.896500,173.464905 115.171417,170.938065 
	C115.665825,170.918518 116.160240,170.898972 116.654648,170.879425 
	C116.654648,169.187866 116.654648,167.496323 116.654648,165.804764 
	C115.074196,163.195038 113.493744,160.585297 111.963165,157.316895 
	C111.701447,156.109131 111.389854,155.560028 111.078262,155.010941 
	C110.983559,152.624771 110.888863,150.238586 111.215164,147.325089 
	C111.776665,146.236404 111.917160,145.675064 112.057663,145.113708 
	C112.260849,144.846375 112.464050,144.579056 113.212349,144.207123 
	C114.199188,143.449142 114.640923,142.795776 115.082649,142.142410 
	C115.272270,141.705536 115.461891,141.268677 116.120453,140.456848 
	C117.094452,139.115356 117.599525,138.148819 118.104599,137.182281 
	C118.291473,136.735641 118.478348,136.289001 119.097153,135.483368 
	C119.831764,134.748856 120.134430,134.373322 120.620094,134.149231 
	C121.211227,134.534668 121.619354,134.768677 122.027481,135.002670 
	C121.524307,136.382263 121.021133,137.761856 120.065224,139.695526 
	C118.287025,148.073669 124.261673,153.843750 125.546074,160.980896 
	C125.888954,162.886185 128.176102,164.441589 129.570618,166.157623 
	C129.570618,166.157623 129.903091,166.474335 129.936691,167.018005 
	C130.850586,168.423996 131.730865,169.286285 132.611160,170.148590 
	C132.611160,170.148590 132.950546,170.426895 132.973572,171.026306 
	C132.342041,177.005432 128.055054,171.207016 126.223145,174.241211 
	C128.021286,177.868240 126.542686,183.861786 133.293365,184.765625 
	C133.653641,184.881119 134.013931,184.996613 134.690857,185.587494 
	C136.692291,187.027863 138.377060,187.992874 140.061829,188.957886 
	C141.481293,189.619400 142.900772,190.280930 144.626465,191.493484 
	C147.105881,194.095886 147.276428,196.101593 145.713089,198.843536 
	C144.322266,201.282959 143.863663,204.253860 142.993622,206.990189 
	C141.673508,208.463440 140.353394,209.936676 138.425293,211.656433 
	C134.505371,214.365646 134.852768,217.577240 135.966690,220.945694 
	C132.659302,222.998062 129.351913,225.050430 125.274033,227.119873 
	C120.305305,228.032730 116.107063,228.928513 111.908829,229.824310 
	C111.908829,229.824310 111.933792,229.899429 111.525650,229.885208 
	C110.140518,231.319305 109.163544,232.767624 108.186554,234.215942 
z"/>
<path fill="#E7E7E7" opacity="1.000000" stroke="none" 
	d="
M137.750031,398.230835 
	C138.122192,398.632263 138.494354,399.033691 138.962723,399.988647 
	C139.960739,401.768097 140.862534,402.993958 141.764343,404.219849 
	C144.736664,406.738556 147.650574,409.330414 150.694168,411.759796 
	C156.060760,416.043457 155.314514,422.584930 156.795944,428.256958 
	C157.623764,431.426422 157.597168,434.819061 157.546448,438.562439 
	C156.642212,439.053040 156.147110,439.092316 155.398315,438.893707 
	C153.208252,435.105316 151.214127,431.584778 149.350388,427.996521 
	C147.127884,423.717590 145.017120,419.380646 143.103104,414.899811 
	C142.886383,414.153534 142.424484,413.576263 141.703522,412.781006 
	C140.207932,412.125732 138.971405,411.688477 137.734894,411.251221 
	C135.285919,409.902039 132.763046,408.669342 130.406372,407.174622 
	C127.345757,405.233398 126.485832,402.823120 127.054108,398.818115 
	C127.832542,393.331909 126.276855,387.530060 126.929192,382.006104 
	C127.598709,376.336700 128.985245,370.473328 131.497833,365.409241 
	C132.907654,362.567841 137.232971,361.173004 140.837067,359.051025 
	C141.827423,359.107452 142.225464,359.239258 142.623260,359.778748 
	C142.991928,362.048492 143.360855,363.910522 143.583252,366.067627 
	C143.694901,366.914642 143.953110,367.466614 144.211319,368.018555 
	C142.989105,369.552673 141.766891,371.086761 139.920166,372.807587 
	C132.282791,378.464630 131.446243,392.123749 137.750031,398.230835 
z"/>
<path fill="#F7F7F7" opacity="1.000000" stroke="none" 
	d="
M200.038452,67.058250 
	C200.106506,66.897835 200.174561,66.737419 200.773758,66.335747 
	C201.434326,65.286865 201.563751,64.479248 201.693176,63.671623 
	C203.518341,56.055943 205.343521,48.440266 207.726349,40.501362 
	C209.864182,39.431477 211.444366,38.684818 213.275482,38.177368 
	C216.342834,39.475143 219.229767,40.465515 219.196259,44.279934 
	C218.992783,44.623028 218.789307,44.966118 218.134186,45.490448 
	C217.388443,46.015110 217.094315,46.358536 216.513443,46.864128 
	C215.475891,49.019779 214.725082,51.013260 213.891479,53.308060 
	C213.528046,54.381268 213.247375,55.153164 212.715347,56.010040 
	C212.326813,56.725513 212.189636,57.356003 211.982391,58.376114 
	C212.022583,59.269592 212.132874,59.773445 212.243134,60.277294 
	C212.200699,62.245121 212.158264,64.212944 211.714874,66.798897 
	C210.957687,69.371162 210.601440,71.325310 210.245209,73.279457 
	C210.216141,73.670624 210.187073,74.061798 209.813385,74.662064 
	C209.468781,74.871170 209.017120,75.050896 208.696106,75.117706 
	C207.994720,76.498032 207.614349,77.811531 207.377502,79.211517 
	C207.520996,79.297997 207.729889,79.035980 207.729889,79.035980 
	C207.083496,79.711487 206.437119,80.387001 205.146881,81.007416 
	C199.363937,83.564781 194.047745,85.886391 189.137863,88.875389 
	C184.649170,91.607986 180.721512,95.250435 176.299759,98.110237 
	C174.425797,99.322235 171.523712,101.031311 170.667999,96.663559 
	C172.287354,94.532166 173.906723,92.400764 176.225967,90.258728 
	C178.653152,89.695374 180.344635,88.944496 182.114059,88.624794 
	C189.186981,87.346863 192.954315,83.015457 194.064377,76.099373 
	C194.736374,74.963776 195.408356,73.828178 196.654877,72.463943 
	C198.165741,70.509613 199.102097,68.783936 200.038452,67.058250 
z"/>
<path fill="#EEEEEE" opacity="1.000000" stroke="none" 
	d="
M256.023590,423.010986 
	C256.023590,423.010986 256.293884,422.812653 256.643311,422.513489 
	C257.688690,421.159180 258.384613,420.104004 259.080505,419.048828 
	C259.382324,418.889191 259.623962,418.664795 260.316254,418.191040 
	C261.215332,417.332733 261.603638,416.659058 261.991943,415.985382 
	C262.175079,415.565338 262.358215,415.145325 262.993988,414.254974 
	C263.464844,413.002106 263.483093,412.219574 263.501343,411.437042 
	C263.564819,410.810577 263.628326,410.184082 264.223816,409.317688 
	C266.219421,408.165955 267.682983,407.254181 269.232178,406.047363 
	C269.263916,405.554749 269.210022,405.357178 269.156097,405.159576 
	C269.156097,405.159576 269.012970,405.036621 269.361847,405.098694 
	C270.157074,404.901428 270.603424,404.642059 271.251770,404.643494 
	C271.970398,406.554626 272.487061,408.204987 272.640991,409.937195 
	C271.394165,411.823608 270.325623,413.565277 269.682709,415.451996 
	C269.141479,417.040283 269.691284,419.334564 268.735687,420.394592 
	C260.999542,428.976166 253.352646,437.685089 245.022079,445.670319 
	C237.191360,453.176483 230.515091,462.824951 218.074478,463.523804 
	C217.771835,463.511780 217.534256,463.381317 217.303741,462.628540 
	C216.591507,461.690002 215.937225,461.255280 215.282959,460.820526 
	C215.282959,460.820526 215.177475,460.828979 215.149231,460.440430 
	C213.801132,459.332123 212.481262,458.612396 211.161377,457.892670 
	C211.161377,457.892670 211.091797,457.880402 211.091537,457.565125 
	C212.112686,456.274475 213.134094,455.299103 214.155502,454.323700 
	C214.554794,454.224335 214.954102,454.124969 215.989075,454.059662 
	C217.736832,453.750610 218.848923,453.407532 219.961014,453.064423 
	C221.088470,453.670959 222.215927,454.277496 223.901764,455.133820 
	C232.040863,453.564301 234.539078,446.814911 238.279465,441.232880 
	C239.651566,439.185242 241.184509,437.189758 242.930237,435.459076 
	C247.205933,431.220184 251.648300,427.149414 256.023590,423.010986 
z"/>
<path fill="#E6E6E6" opacity="1.000000" stroke="none" 
	d="
M138.869537,343.593689 
	C134.831131,338.139130 131.087891,332.429626 126.663605,327.308441 
	C122.931725,322.988678 119.469315,319.568085 118.953224,312.818909 
	C118.289703,304.141846 114.695541,295.560822 105.236526,290.803589 
	C105.972404,286.791840 106.921921,283.433411 108.216385,280.030945 
	C109.727028,279.302094 110.892715,278.617340 112.285515,278.188538 
	C112.677284,281.006561 112.215073,283.816681 113.113853,286.088318 
	C117.263451,296.576233 121.501106,307.051880 126.321091,317.241516 
	C128.380508,321.595215 132.292740,325.038086 134.704803,329.270020 
	C136.734192,332.830566 138.508286,335.992432 142.918701,337.120514 
	C144.511948,337.528046 145.660843,339.673004 147.012512,341.025146 
	C146.992813,341.428802 146.973114,341.832428 146.589890,342.643799 
	C145.148529,345.697784 144.070679,348.344025 142.706604,350.943512 
	C142.047104,350.841461 141.673813,350.786163 141.300537,350.730865 
	C140.837585,349.751740 140.374649,348.772614 139.947281,347.185242 
	C139.611740,345.582550 139.240631,344.588104 138.869537,343.593689 
z"/>
<path fill="#F2F2F2" opacity="1.000000" stroke="none" 
	d="
M122.205856,134.727814 
	C121.619354,134.768677 121.211227,134.534668 120.614365,133.824402 
	C120.658569,132.303421 120.891510,131.258713 121.124451,130.214020 
	C121.310448,129.758606 121.496445,129.303207 122.174301,128.397461 
	C124.092430,122.939690 125.518677,117.932266 126.944931,112.924843 
	C127.239441,111.806137 127.533958,110.687431 128.322021,109.135017 
	C128.829071,108.075577 128.842590,107.449852 128.856094,106.824120 
	C128.848190,105.793854 128.840271,104.763588 129.254089,103.192520 
	C130.092682,101.066750 130.509552,99.481789 130.926422,97.896828 
	C130.926422,97.896828 131.082382,97.467194 131.587769,97.285690 
	C135.728729,94.069839 139.364304,91.035500 142.999878,88.001167 
	C144.399231,87.959763 145.798584,87.918358 147.802002,88.292152 
	C152.186707,92.188210 155.967377,95.669067 160.379608,99.731422 
	C155.302414,99.731422 151.167389,99.731422 147.032379,99.731422 
	C146.014648,99.838501 144.996933,99.945587 143.221497,100.068581 
	C141.976196,101.384293 141.488602,102.684097 141.001007,103.983902 
	C140.669876,104.133072 140.338730,104.282249 139.438858,104.315186 
	C138.174942,104.599770 137.479752,105.000587 136.784576,105.401413 
	C136.784576,105.401413 136.607162,105.635971 136.137604,105.683250 
	C135.200912,107.460480 134.547592,109.167595 134.331573,110.928352 
	C134.185715,112.117188 134.656281,113.381645 134.851135,114.612282 
	C134.187622,115.190216 133.524109,115.768143 132.303528,116.677536 
	C129.216278,120.581680 126.657845,124.145393 127.964447,128.934814 
	C126.104378,130.774185 124.244301,132.613571 122.205856,134.727814 
z"/>
<path fill="#F0F0F0" opacity="1.000000" stroke="none" 
	d="
M273.003723,409.855347 
	C272.487061,408.204987 271.970398,406.554626 271.417877,404.282715 
	C272.107971,403.450073 273.118439,402.822723 273.514923,403.093689 
	C276.730164,405.291412 278.558258,403.816040 280.146820,400.977722 
	C280.470856,400.398804 281.446716,400.184723 282.122101,399.802460 
	C289.465332,402.638336 293.699188,408.700562 296.899231,415.266754 
	C300.181854,422.002350 302.453766,429.230499 304.501495,436.559418 
	C298.610840,434.389465 295.872131,429.708038 293.576996,424.794373 
	C291.684235,420.742096 290.245453,416.477814 288.161835,411.681580 
	C282.813324,410.655579 277.908539,410.255463 273.003723,409.855347 
z"/>
<path fill="#A8A8A8" opacity="1.000000" stroke="none" 
	d="
M147.323212,99.947845 
	C151.167389,99.731422 155.302414,99.731422 160.379608,99.731422 
	C155.967377,95.669067 152.186707,92.188210 148.215256,88.430603 
	C150.100189,87.566414 151.347458,87.578865 152.432648,90.238617 
	C154.999222,96.529037 164.922729,100.051788 170.287750,96.798981 
	C171.523712,101.031311 174.425797,99.322235 176.299759,98.110237 
	C180.721512,95.250435 184.649170,91.607986 189.137863,88.875389 
	C194.047745,85.886391 199.363937,83.564781 204.867279,81.072731 
	C200.022003,84.322968 194.717407,87.308090 189.642456,90.642708 
	C187.046844,92.348213 184.260117,94.290253 182.627747,96.815681 
	C179.906403,101.025864 176.331467,102.516144 171.703735,102.169868 
	C163.668808,101.568642 155.643433,100.839668 147.323212,99.947845 
z"/>
<path fill="#BFBFBF" opacity="1.000000" stroke="none" 
	d="
M147.263840,340.919128 
	C145.660843,339.673004 144.511948,337.528046 142.918701,337.120514 
	C138.508286,335.992432 136.734192,332.830566 134.704803,329.270020 
	C132.292740,325.038086 128.380508,321.595215 126.321091,317.241516 
	C121.501106,307.051880 117.263451,296.576233 113.113853,286.088318 
	C112.215073,283.816681 112.677284,281.006561 112.092072,277.856628 
	C111.075089,275.443054 109.926598,273.598785 109.987358,271.795227 
	C110.158775,266.706879 110.826668,261.635254 111.298904,256.557037 
	C111.479729,258.060852 112.001266,259.616730 111.780716,261.059174 
	C110.950783,266.487030 109.823753,271.875092 113.446869,276.825684 
	C113.819901,277.335358 114.200317,278.114960 114.084587,278.665771 
	C112.367836,286.836456 117.951912,292.582397 120.765381,299.261261 
	C122.079857,302.381683 122.701683,305.799133 124.071251,308.889709 
	C125.518776,312.156158 127.353973,315.274384 129.255905,318.309418 
	C131.253906,321.497711 133.794128,324.364838 135.614685,327.640594 
	C137.496460,331.026489 139.183105,334.080261 143.264816,335.559692 
	C145.078094,336.216949 146.122040,338.996765 147.263840,340.919128 
z"/>
<path fill="#B2B2B2" opacity="1.000000" stroke="none" 
	d="
M272.640991,409.937195 
	C277.908539,410.255463 282.813324,410.655579 287.900513,411.402710 
	C283.939606,411.582886 279.795135,411.265198 275.653412,411.297607 
	C272.425690,411.322815 270.923737,413.005585 271.303040,416.480499 
	C271.476013,418.064972 271.225952,420.236847 270.252380,421.317780 
	C263.734436,428.554108 257.118805,435.716919 250.240814,442.610229 
	C244.041763,448.823059 237.578873,454.787018 231.013336,460.613983 
	C227.566727,463.672852 223.442062,465.441895 218.339935,463.800995 
	C230.515091,462.824951 237.191360,453.176483 245.022079,445.670319 
	C253.352646,437.685089 260.999542,428.976166 268.735687,420.394592 
	C269.691284,419.334564 269.141479,417.040283 269.682709,415.451996 
	C270.325623,413.565277 271.394165,411.823608 272.640991,409.937195 
z"/>
<path fill="#EEEEEE" opacity="1.000000" stroke="none" 
	d="
M189.111221,457.266418 
	C187.380569,458.182190 185.649918,459.097961 183.272705,460.028259 
	C182.006363,460.485992 181.386566,460.929138 180.766785,461.372314 
	C179.839050,461.968536 178.911316,462.564789 177.270935,463.172424 
	C174.446014,462.796295 172.338745,462.378540 170.220428,462.027496 
	C165.485977,461.242981 162.035416,457.022583 162.469452,452.291260 
	C165.153870,452.259888 167.483383,452.004791 170.162964,451.799866 
	C172.348557,451.527466 174.184097,451.204987 176.019638,450.882477 
	C176.430939,450.957703 176.842239,451.032928 177.590210,451.573822 
	C181.525955,453.005646 185.142319,453.916504 188.696121,455.027435 
	C189.034714,455.133270 188.982178,456.490265 189.111221,457.266418 
z"/>
<path fill="#959595" opacity="1.000000" stroke="none" 
	d="
M162.114578,452.067566 
	C162.035416,457.022583 165.485977,461.242981 170.220428,462.027496 
	C172.338745,462.378540 174.446014,462.796295 176.971802,463.314697 
	C169.362961,464.491821 162.691437,462.529144 160.133118,455.117096 
	C156.524307,444.661407 153.113022,433.665497 144.857208,425.359375 
	C143.667755,424.162659 143.336090,422.134857 142.530807,420.530121 
	C141.075180,417.629425 139.561737,414.757782 137.903671,411.562622 
	C138.971405,411.688477 140.207932,412.125732 141.727264,413.074158 
	C142.292709,414.079834 142.575333,414.574310 142.857941,415.068817 
	C145.017120,419.380646 147.127884,423.717590 149.350388,427.996521 
	C151.214127,431.584778 153.208252,435.105316 155.499878,439.232422 
	C156.685486,440.862640 157.515884,441.916229 158.346283,442.969818 
	C159.344315,445.213806 160.342361,447.457825 161.555328,450.220032 
	C161.885056,451.181366 161.999817,451.624481 162.114578,452.067566 
z"/>
<path fill="#F2F2F2" opacity="1.000000" stroke="none" 
	d="
M111.213524,256.372437 
	C110.826668,261.635254 110.158775,266.706879 109.987358,271.795227 
	C109.926598,273.598785 111.075089,275.443054 111.864960,277.600647 
	C110.892715,278.617340 109.727028,279.302094 107.910583,279.843445 
	C105.865036,274.464020 103.408928,269.207092 103.511497,264.000549 
	C103.564865,261.291382 105.700768,256.315430 110.735512,256.081360 
	C110.735512,256.081360 111.128151,256.187805 111.213524,256.372437 
z"/>
<path fill="#BFBFBF" opacity="1.000000" stroke="none" 
	d="
M110.528259,255.704529 
	C105.700768,256.315430 103.564865,261.291382 103.511497,264.000549 
	C103.408928,269.207092 105.865036,274.464020 107.565628,279.887512 
	C106.921921,283.433411 105.972404,286.791840 105.021011,290.539490 
	C104.579781,289.644012 103.596596,288.249146 103.829247,287.100555 
	C104.173576,285.400574 105.380966,283.875458 106.180695,282.352448 
	C100.562767,276.860504 101.330727,269.743042 101.084442,263.236664 
	C100.999420,260.990601 104.070229,258.203400 106.289009,256.381287 
	C110.653458,252.797073 109.536003,248.523239 108.055595,244.213791 
	C108.810730,247.918427 109.565865,251.623077 110.528259,255.704529 
z"/>
<path fill="#3F3F3F" opacity="1.000000" stroke="none" 
	d="
M255.671707,423.031250 
	C251.648300,427.149414 247.205933,431.220184 242.930237,435.459076 
	C241.184509,437.189758 239.651566,439.185242 238.279465,441.232880 
	C234.539078,446.814911 232.040863,453.564301 224.234329,455.154419 
	C228.212311,448.972595 234.979355,444.879272 236.597626,436.962494 
	C236.874695,435.607117 239.609207,434.792542 241.150528,433.649963 
	C245.888733,430.137512 250.598816,426.587128 255.671707,423.031250 
z"/>
<path fill="#959595" opacity="1.000000" stroke="none" 
	d="
M189.435684,457.338867 
	C188.982178,456.490265 189.034714,455.133270 188.696121,455.027435 
	C185.142319,453.916504 181.525955,453.005646 177.893356,451.654114 
	C179.981155,451.404175 182.102463,451.539551 184.798950,452.013794 
	C185.990768,452.406281 186.607422,452.459869 187.224091,452.513489 
	C187.614563,452.639252 188.005035,452.765015 188.895233,453.192139 
	C189.998260,453.515594 190.601562,453.537689 191.204880,453.559814 
	C198.559357,453.683685 205.913818,453.807556 213.711899,454.127563 
	C213.134094,455.299103 212.112686,456.274475 211.099243,457.530701 
	C203.991531,457.678101 196.875839,457.544708 189.435684,457.338867 
z"/>
<path fill="#A8A8A8" opacity="1.000000" stroke="none" 
	d="
M129.577179,165.799133 
	C128.176102,164.441589 125.888954,162.886185 125.546074,160.980896 
	C124.261673,153.843750 118.287025,148.073669 119.876877,140.019226 
	C119.941315,143.248764 120.330818,146.295502 123.973915,148.170349 
	C124.920677,148.657578 125.202621,150.608215 125.609451,151.941757 
	C126.978081,156.428009 128.265335,160.939056 129.577179,165.799133 
z"/>
<path fill="#1C1C1C" opacity="1.000000" stroke="none" 
	d="
M142.992859,350.990265 
	C144.070679,348.344025 145.148529,345.697784 146.574249,342.947784 
	C146.938034,350.146332 146.994507,357.449066 146.923660,364.750519 
	C146.913666,365.778015 146.281143,366.799408 145.452148,367.692139 
	C144.554932,366.964600 144.142365,366.368591 143.729797,365.772552 
	C143.360855,363.910522 142.991928,362.048492 142.771790,359.327698 
	C142.944687,355.976074 142.968765,353.483154 142.992859,350.990265 
z"/>
<path fill="#656565" opacity="1.000000" stroke="none" 
	d="
M137.738815,397.830566 
	C131.446243,392.123749 132.282791,378.464630 139.651062,373.001221 
	C133.486557,380.611328 134.522202,388.919586 137.738815,397.830566 
z"/>
<path fill="#A8A8A8" opacity="1.000000" stroke="none" 
	d="
M133.135406,184.448273 
	C126.542686,183.861786 128.021286,177.868240 126.223145,174.241211 
	C128.055054,171.207016 132.342041,177.005432 133.057846,171.228943 
	C134.604706,171.457855 136.090286,172.083572 137.575882,172.709274 
	C136.979736,173.489014 136.383606,174.268738 135.787476,175.048477 
	C133.478943,175.048477 131.170410,175.048477 128.515625,175.048477 
	C127.775032,179.102768 129.416931,182.046188 133.135406,184.448273 
z"/>
<path fill="#A8A8A8" opacity="1.000000" stroke="none" 
	d="
M193.744232,76.166901 
	C192.954315,83.015457 189.186981,87.346863 182.114059,88.624794 
	C180.344635,88.944496 178.653152,89.695374 176.552078,90.181381 
	C177.398590,89.407745 178.545166,88.301880 179.851471,88.060577 
	C186.764221,86.783600 190.930283,82.504593 193.744232,76.166901 
z"/>
<path fill="#B9B9B9" opacity="1.000000" stroke="none" 
	d="
M219.505615,44.270943 
	C219.229767,40.465515 216.342834,39.475143 213.476257,37.915276 
	C213.797516,37.173473 214.168976,36.932976 214.540436,36.692482 
	C214.989685,36.613247 215.438950,36.534008 216.418976,36.642799 
	C217.650208,36.473457 218.350662,36.116081 219.051117,35.758705 
	C220.300049,35.866394 221.548981,35.974079 222.928238,36.748184 
	C222.983978,38.431438 222.909409,39.448269 222.834824,40.465099 
	C222.834824,40.465099 222.691101,40.783421 222.272079,40.911549 
	C221.562805,41.649593 221.272552,42.259514 220.982300,42.869431 
	C220.593185,43.333603 220.204071,43.797779 219.505615,44.270943 
z"/>
<path fill="#656565" opacity="1.000000" stroke="none" 
	d="
M282.059937,399.509552 
	C281.446716,400.184723 280.470856,400.398804 280.146820,400.977722 
	C278.558258,403.816040 276.730164,405.291412 273.514923,403.093689 
	C273.118439,402.822723 272.107971,403.450073 271.215912,404.021912 
	C270.603424,404.642059 270.157074,404.901428 269.441864,405.148499 
	C269.784149,401.911102 270.337708,398.744232 275.019379,400.763245 
	C275.795074,401.097778 277.049774,400.286194 278.092651,400.045776 
	C279.389160,399.746857 280.695618,399.491058 282.059937,399.509552 
z"/>
<path fill="#A8A8A8" opacity="1.000000" stroke="none" 
	d="
M143.301819,206.874878 
	C143.863663,204.253860 144.322266,201.282959 145.713089,198.843536 
	C147.276428,196.101593 147.105881,194.095886 144.897430,191.695053 
	C146.451843,192.354156 148.041519,193.362717 149.481766,194.276474 
	C147.363403,198.780029 145.486725,202.769806 143.301819,206.874878 
z"/>
<path fill="#A8A8A8" opacity="1.000000" stroke="none" 
	d="
M116.673569,166.216827 
	C116.654648,167.496323 116.654648,169.187866 116.654648,170.879425 
	C116.160240,170.898972 115.665825,170.918518 115.171417,170.938065 
	C116.896500,173.464905 118.621582,175.991760 120.327797,178.847427 
	C117.664062,176.759323 115.019203,174.342407 112.168480,171.737350 
	C113.822876,169.869232 115.257683,168.249069 116.673569,166.216827 
z"/>
<path fill="#A8A8A8" opacity="1.000000" stroke="none" 
	d="
M142.772980,87.844147 
	C139.364304,91.035500 135.728729,94.069839 131.763107,97.139114 
	C135.137405,94.011742 138.841751,90.849434 142.772980,87.844147 
z"/>
<path fill="#A8A8A8" opacity="1.000000" stroke="none" 
	d="
M128.279999,128.827881 
	C126.657845,124.145393 129.216278,120.581680 132.059052,116.899651 
	C131.112961,120.767181 129.854263,124.744072 128.279999,128.827881 
z"/>
<path fill="#3F3F3F" opacity="1.000000" stroke="none" 
	d="
M162.469452,452.291260 
	C161.999817,451.624481 161.885056,451.181366 161.750275,450.506073 
	C165.000870,449.699554 168.271454,449.125214 171.611679,449.046997 
	C171.058517,450.278625 170.435699,451.014160 169.812897,451.749695 
	C167.483383,452.004791 165.153870,452.259888 162.469452,452.291260 
z"/>
<path fill="#A8A8A8" opacity="1.000000" stroke="none" 
	d="
M212.966705,55.925056 
	C213.247375,55.153164 213.528046,54.381268 214.166199,53.101402 
	C215.282516,50.629604 216.041351,48.665779 216.800186,46.701958 
	C217.094315,46.358536 217.388443,46.015110 217.913727,45.696281 
	C216.372787,50.462051 214.600693,55.203228 212.535873,60.110847 
	C212.132874,59.773445 212.022583,59.269592 212.217346,58.193832 
	C212.670486,57.056305 212.818604,56.490681 212.966705,55.925056 
z"/>
<path fill="#C2C2C2" opacity="1.000000" stroke="none" 
	d="
M135.155762,197.384460 
	C139.232132,200.134933 139.307602,205.190338 134.864502,210.071686 
	C134.777435,206.005524 135.036469,201.891174 135.155762,197.384460 
z"/>
<path fill="#A8A8A8" opacity="1.000000" stroke="none" 
	d="
M135.181030,114.596916 
	C134.656281,113.381645 134.185715,112.117188 134.331573,110.928352 
	C134.547592,109.167595 135.200912,107.460480 135.996124,105.723312 
	C136.397690,107.392265 136.623901,109.080223 136.495682,110.740814 
	C136.395493,112.038666 135.855499,113.302567 135.181030,114.596916 
z"/>
<path fill="#A8A8A8" opacity="1.000000" stroke="none" 
	d="
M126.660309,113.099991 
	C125.518677,117.932266 124.092430,122.939690 122.371353,128.084137 
	C123.509583,123.239151 124.942642,118.257141 126.660309,113.099991 
z"/>
<path fill="#A8A8A8" opacity="1.000000" stroke="none" 
	d="
M112.290848,229.626617 
	C116.107063,228.928513 120.305305,228.032730 124.960098,227.249176 
	C121.168732,228.050583 116.920807,228.739761 112.290848,229.626617 
z"/>
<path fill="#A8A8A8" opacity="1.000000" stroke="none" 
	d="
M105.865692,230.446930 
	C106.345512,232.110992 103.520653,234.598099 107.522110,235.896820 
	C107.735313,236.529465 107.633621,237.056351 107.531937,237.583252 
	C106.118652,236.539886 104.705368,235.496506 102.987190,234.228027 
	C103.977913,232.889923 104.803322,231.775101 105.865692,230.446930 
z"/>
<path fill="#A8A8A8" opacity="1.000000" stroke="none" 
	d="
M136.310928,220.852448 
	C134.852768,217.577240 134.505371,214.365646 138.155563,211.855530 
	C137.880936,214.791809 137.268051,217.775497 136.310928,220.852448 
z"/>
<path fill="#656565" opacity="1.000000" stroke="none" 
	d="
M142.706619,350.943512 
	C142.968765,353.483154 142.944687,355.976074 142.772064,358.920013 
	C142.225464,359.239258 141.827423,359.107452 141.134521,358.862061 
	C140.970230,356.377869 141.100769,354.007263 141.265930,351.183777 
	C141.673813,350.786163 142.047104,350.841461 142.706619,350.943512 
z"/>
<path fill="#A8A8A8" opacity="1.000000" stroke="none" 
	d="
M214.323013,36.516808 
	C214.168976,36.932976 213.797516,37.173473 213.225311,37.676064 
	C211.444366,38.684818 209.864182,39.431477 207.957962,40.206776 
	C209.789810,38.937325 211.947708,37.639233 214.323013,36.516808 
z"/>
<path fill="#959595" opacity="1.000000" stroke="none" 
	d="
M170.162949,451.799835 
	C170.435699,451.014160 171.058517,450.278625 171.839554,449.286163 
	C173.316788,449.408752 174.635803,449.788239 175.987228,450.525085 
	C174.184097,451.204987 172.348557,451.527466 170.162949,451.799835 
z"/>
<path fill="#A8A8A8" opacity="1.000000" stroke="none" 
	d="
M120.511414,181.394226 
	C120.868248,182.952423 120.939758,184.708435 120.919563,186.846741 
	C120.627266,185.350037 120.426674,183.471039 120.511414,181.394226 
z"/>
<path fill="#A8A8A8" opacity="1.000000" stroke="none" 
	d="
M199.718018,67.114548 
	C199.102097,68.783936 198.165741,70.509613 196.890198,72.230103 
	C197.499878,70.540222 198.448715,68.855530 199.718018,67.114548 
z"/>
<path fill="#B9B9B9" opacity="1.000000" stroke="none" 
	d="
M269.146576,406.342377 
	C267.682983,407.254181 266.219421,408.165955 264.361572,409.032806 
	C263.924927,408.565918 263.882507,408.143951 264.373352,407.469177 
	C266.319916,406.925018 267.733246,406.633698 269.146576,406.342377 
z"/>
<path fill="#A8A8A8" opacity="1.000000" stroke="none" 
	d="
M139.946167,188.651199 
	C138.377060,187.992874 136.692291,187.027863 134.925125,185.749908 
	C136.505325,186.406128 138.167923,187.375320 139.946167,188.651199 
z"/>
<path fill="#A8A8A8" opacity="1.000000" stroke="none" 
	d="
M210.528732,73.122566 
	C210.601440,71.325310 210.957687,69.371162 211.625824,67.213394 
	C211.562576,68.995064 211.187424,70.980370 210.528732,73.122566 
z"/>
<path fill="#A8A8A8" opacity="1.000000" stroke="none" 
	d="
M108.287704,233.896912 
	C109.163544,232.767624 110.140518,231.319305 111.486435,229.890564 
	C110.699852,231.132736 109.544350,232.355316 108.287704,233.896912 
z"/>
<path fill="#A8A8A8" opacity="1.000000" stroke="none" 
	d="
M141.223923,104.105042 
	C141.488602,102.684097 141.976196,101.384293 142.841400,100.127060 
	C142.628296,101.521820 142.037582,102.874008 141.223923,104.105042 
z"/>
<path fill="#A8A8A8" opacity="1.000000" stroke="none" 
	d="
M130.626617,97.980301 
	C130.509552,99.481789 130.092682,101.066750 129.366089,102.821243 
	C129.479843,101.348442 129.903320,99.706116 130.626617,97.980301 
z"/>
<path fill="#656565" opacity="1.000000" stroke="none" 
	d="
M269.232178,406.047363 
	C267.733246,406.633698 266.319916,406.925018 264.540344,407.176666 
	C265.574280,406.476898 266.974487,405.816803 268.765381,405.158142 
	C269.210022,405.357178 269.263916,405.554749 269.232178,406.047363 
z"/>
<path fill="#959595" opacity="1.000000" stroke="none" 
	d="
M211.243408,458.202667 
	C212.481262,458.612396 213.801132,459.332123 215.149536,460.387512 
	C213.893875,459.986328 212.609665,459.249512 211.243408,458.202667 
z"/>
<path fill="#3F3F3F" opacity="1.000000" stroke="none" 
	d="
M219.901550,452.736328 
	C218.848923,453.407532 217.736832,453.750610 216.283737,453.967712 
	C216.606491,451.633698 217.431091,449.863281 219.901550,452.736328 
z"/>
<path fill="#A8A8A8" opacity="1.000000" stroke="none" 
	d="
M209.017120,75.050896 
	C209.017120,75.050896 209.468781,74.871170 209.702942,74.936325 
	C209.418167,76.345070 208.899246,77.688660 208.055115,79.034119 
	C207.729889,79.035980 207.520996,79.297997 207.630188,78.911644 
	C208.165314,77.367165 208.591217,76.209030 209.017120,75.050896 
z"/>
<path fill="#A8A8A8" opacity="1.000000" stroke="none" 
	d="
M120.824768,130.311737 
	C120.891510,131.258713 120.658569,132.303421 120.431366,133.672943 
	C120.134430,134.373322 119.831764,134.748856 119.292358,135.176239 
	C119.545441,133.621872 120.035263,132.015656 120.824768,130.311737 
z"/>
<path fill="#656565" opacity="1.000000" stroke="none" 
	d="
M141.768555,403.876831 
	C140.862534,402.993958 139.960739,401.768097 139.138611,400.198792 
	C140.069794,401.081482 140.921280,402.307648 141.768555,403.876831 
z"/>
<path fill="#A8A8A8" opacity="1.000000" stroke="none" 
	d="
M223.138123,40.480869 
	C222.909409,39.448269 222.983978,38.431438 223.106262,37.034042 
	C223.249771,37.934532 223.345596,39.215588 223.138123,40.480869 
z"/>
<path fill="#A8A8A8" opacity="1.000000" stroke="none" 
	d="
M117.809357,137.249329 
	C117.599525,138.148819 117.094452,139.115356 116.313591,140.155838 
	C116.529900,139.258652 117.022003,138.287521 117.809357,137.249329 
z"/>
<path fill="#C2C2C2" opacity="1.000000" stroke="none" 
	d="
M128.788895,214.404358 
	C128.272049,215.249115 127.457870,216.138184 126.318665,217.012024 
	C126.826279,216.147415 127.658920,215.298050 128.788895,214.404358 
z"/>
<path fill="#A8A8A8" opacity="1.000000" stroke="none" 
	d="
M132.613174,169.834839 
	C131.730865,169.286285 130.850586,168.423996 130.018433,167.232544 
	C130.916122,167.775970 131.765656,168.648544 132.613174,169.834839 
z"/>
<path fill="#3F3F3F" opacity="1.000000" stroke="none" 
	d="
M258.714813,419.071564 
	C258.384613,420.104004 257.688690,421.159180 256.698547,422.355225 
	C257.052612,421.362183 257.700867,420.228241 258.714813,419.071564 
z"/>
<path fill="#656565" opacity="1.000000" stroke="none" 
	d="
M138.738358,343.915649 
	C139.240631,344.588104 139.611740,345.582550 139.831329,346.881104 
	C139.322281,346.202728 138.964737,345.220184 138.738358,343.915649 
z"/>
<path fill="#E6E6E6" opacity="1.000000" stroke="none" 
	d="
M158.342743,442.567474 
	C157.515884,441.916229 156.685486,440.862640 155.753540,439.470337 
	C156.147110,439.092316 156.642212,439.053040 157.508118,439.006653 
	C158.032318,440.054749 158.185760,441.109924 158.342743,442.567474 
z"/>
<path fill="#959595" opacity="1.000000" stroke="none" 
	d="
M215.255859,461.142151 
	C215.937225,461.255280 216.591507,461.690002 217.197205,462.447876 
	C216.508667,462.335266 215.868713,461.899536 215.255859,461.142151 
z"/>
<path fill="#959595" opacity="1.000000" stroke="none" 
	d="
M181.059601,461.410675 
	C181.386566,460.929138 182.006363,460.485992 182.916748,460.118835 
	C182.589050,460.612915 181.970734,461.030975 181.059601,461.410675 
z"/>
<path fill="#A8A8A8" opacity="1.000000" stroke="none" 
	d="
M218.758987,35.678299 
	C218.350662,36.116081 217.650208,36.473457 216.633636,36.733940 
	C217.033951,36.290661 217.750412,35.944279 218.758987,35.678299 
z"/>
<path fill="#3F3F3F" opacity="1.000000" stroke="none" 
	d="
M191.106018,453.324585 
	C190.601562,453.537689 189.998260,453.515594 189.197296,453.251404 
	C189.668823,453.035980 190.337982,453.062653 191.106018,453.324585 
z"/>
<path fill="#3F3F3F" opacity="1.000000" stroke="none" 
	d="
M187.129639,452.281250 
	C186.607422,452.459869 185.990768,452.406281 185.193451,452.083374 
	C185.686935,451.892426 186.361069,451.970703 187.129639,452.281250 
z"/>
<path fill="#A8A8A8" opacity="1.000000" stroke="none" 
	d="
M221.235504,42.786201 
	C221.272552,42.259514 221.562805,41.649593 222.098892,40.933971 
	C222.059387,41.453167 221.774048,42.078068 221.235504,42.786201 
z"/>
<path fill="#A8A8A8" opacity="1.000000" stroke="none" 
	d="
M110.902252,155.171005 
	C111.389854,155.560028 111.701447,156.109131 111.886589,156.975922 
	C111.415497,156.639435 111.070869,155.985260 110.902252,155.171005 
z"/>
<path fill="#A8A8A8" opacity="1.000000" stroke="none" 
	d="
M111.806992,145.083405 
	C111.917160,145.675064 111.776665,146.236404 111.345428,146.894562 
	C111.221909,146.345276 111.389114,145.699188 111.806992,145.083405 
z"/>
<path fill="#656565" opacity="1.000000" stroke="none" 
	d="
M143.583252,366.067627 
	C144.142365,366.368591 144.554932,366.964600 145.090469,367.818970 
	C145.042740,368.130096 144.872055,368.182892 144.456329,368.127106 
	C143.953110,367.466614 143.694901,366.914642 143.583252,366.067627 
z"/>
<path fill="#B9B9B9" opacity="1.000000" stroke="none" 
	d="
M261.707855,416.073608 
	C261.603638,416.659058 261.215332,417.332733 260.510742,418.034607 
	C260.604218,417.429138 261.013977,416.795471 261.707855,416.073608 
z"/>
<path fill="#B9B9B9" opacity="1.000000" stroke="none" 
	d="
M263.295654,411.648193 
	C263.483093,412.219574 263.464844,413.002106 263.190063,413.970154 
	C262.985687,413.390228 263.037842,412.624817 263.295654,411.648193 
z"/>
<path fill="#A8A8A8" opacity="1.000000" stroke="none" 
	d="
M201.447006,63.841270 
	C201.563751,64.479248 201.434326,65.286865 200.972168,66.165573 
	C200.826569,65.494751 201.013702,64.752838 201.447006,63.841270 
z"/>
<path fill="#A8A8A8" opacity="1.000000" stroke="none" 
	d="
M114.780777,142.190002 
	C114.640923,142.795776 114.199188,143.449142 113.430862,144.077591 
	C113.562477,143.447647 114.020691,142.842621 114.780777,142.190002 
z"/>
<path fill="#A8A8A8" opacity="1.000000" stroke="none" 
	d="
M128.626038,106.881577 
	C128.842590,107.449852 128.829071,108.075577 128.502197,108.836029 
	C128.257889,108.293518 128.326935,107.616272 128.626038,106.881577 
z"/>
<path fill="#A8A8A8" opacity="1.000000" stroke="none" 
	d="
M137.079544,105.428192 
	C137.479752,105.000587 138.174942,104.599770 139.164886,104.340042 
	C138.764603,104.805748 138.069565,105.130363 137.079544,105.428192 
z"/>
<path fill="#E6E6E6" opacity="1.000000" stroke="none" 
	d="
M143.103119,414.899811 
	C142.575333,414.574310 142.292709,414.079834 141.986328,413.292175 
	C142.424484,413.576263 142.886383,414.153534 143.103119,414.899811 
z"/>
<path fill="#B9B9B9" opacity="1.000000" stroke="none" 
	d="
M216.513443,46.864128 
	C216.041351,48.665779 215.282516,50.629604 214.248962,52.800087 
	C214.725082,51.013260 215.475891,49.019779 216.513443,46.864128 
z"/>
<path fill="#B9B9B9" opacity="1.000000" stroke="none" 
	d="
M208.696106,75.117706 
	C208.591217,76.209030 208.165314,77.367165 207.486694,78.825165 
	C207.614349,77.811531 207.994720,76.498032 208.696106,75.117706 
z"/>
<path fill="#B9B9B9" opacity="1.000000" stroke="none" 
	d="
M212.715332,56.010040 
	C212.818604,56.490681 212.670486,57.056305 212.287415,57.804207 
	C212.189636,57.356003 212.326813,56.725513 212.715332,56.010040 
z"/>
</svg>